#!OML:ASF H:\Not Pregnant\Project 1\Capture day 1\Session 1\non-pregnant.ASF
:FULLY-SPECIFIED
:DEGREES
1082
root 6.16407 15.1367 36.4198 -170.947 -165.355 -186.357
lowerback 1.64275 2.36553 5.79718
upperback -6.01386 3.48299 0.157272
thorax -6.88547 1.39689 -3.32844
lowerneck 17.3138 -10.708 -28.7283
upperneck -11.4661 -18.8591 45.4289
head 2.48899 -12.0962 23.5185
rclavicle 2.90226e-014 8.34896e-015
rhumerus -32.5661 -5.21907 -85.5598
rradius 27.7289
rwrist 24.7031
rhand -9.07347 -2.50581
rfingers 7.12502
rthumb -163.124 148.207
lclavicle 2.90226e-014 8.34896e-015
lhumerus -49.6889 6.11835 79.6081
lradius 25.1264
lwrist 19.1696
lhand -11.1388 -3.32463
lfingers 7.12502
lthumb 14.8868 26.1205
rfemur -27.5232 3.81917 33.4475
rtibia 40.7858
rfoot -16.2514 2.99334
rtoes -11.5959
lfemur -30.2381 6.20103 -12.1964
ltibia 68.3565
lfoot -13.7774 1.97505
ltoes -36.4236
1083
root 6.15644 15.1324 36.5138 -170.954 -164.785 -186.417
lowerback 1.80204 2.47394 5.89973
upperback -5.96454 3.63903 0.0843271
thorax -6.89981 1.46629 -3.47877
lowerneck 17.1662 -10.6496 -28.7513
upperneck -11.2935 -18.7899 45.4037
head 2.52989 -12.0424 23.5126
rclavicle -3.06128e-014 3.57812e-015
rhumerus -32.2875 -5.35964 -85.7229
rradius 27.898
rwrist 24.3161
rhand -9.21669 -2.7853
rfingers 7.12502
rthumb -163.262 147.916
lclavicle -3.06128e-014 3.57812e-015
lhumerus -50.1469 5.77521 79.6448
lradius 25.5482
lwrist 20.0338
lhand -11.5442 -3.77712
lfingers 7.12502
lthumb 14.4962 25.6965
rfemur -27.0504 4.16555 33.4419
rtibia 40.814
rfoot -16.5955 3.03821
rtoes -11.7003
lfemur -31.0656 6.19711 -11.9776
ltibia 67.8104
lfoot -14.1388 2.94423
ltoes -35.8784
1084
root 6.14969 15.129 36.608 -170.954 -164.207 -186.498
lowerback 1.96426 2.58318 6.02454
upperback -5.92115 3.79868 0.0201837
thorax -6.92041 1.53616 -3.63329
lowerneck 17.0307 -10.5867 -28.78
upperneck -11.1232 -18.7159 45.3674
head 2.56381 -11.9858 23.5033
rclavicle -2.82523e-014 -4.77083e-015
rhumerus -32.0335 -5.47373 -85.884
rradius 28.0732
rwrist 23.916
rhand -9.3618 -3.00686
rfingers 7.12502
rthumb -163.402 147.683
lclavicle -2.82523e-014 -4.77083e-015
lhumerus -50.5933 5.41914 79.7125
lradius 25.9729
lwrist 20.8509
lhand -11.9214 -4.34415
lfingers 7.12502
lthumb 14.1327 25.1552
rfemur -26.5631 4.50347 33.45
rtibia 40.8096
rfoot -16.9297 3.11366
rtoes -11.7802
lfemur -31.8442 6.14755 -11.7261
ltibia 67.1564
lfoot -14.4577 3.89462
ltoes -35.2557
1085
root 6.14369 15.1259 36.7006 -170.941 -163.625 -186.576
lowerback 2.11838 2.69589 6.14433
upperback -5.87278 3.96234 -0.0426223
thorax -6.92981 1.60887 -3.78369
lowerneck 16.9034 -10.5289 -28.8254
upperneck -10.9804 -18.6494 45.3374
head 2.59644 -11.935 23.5021
rclavicle 2.50966e-015 -1.11319e-014
rhumerus -31.7758 -5.5653 -86.0368
rradius 28.2541
rwrist 23.5096
rhand -9.50029 -3.1225
rfingers 7.12502
rthumb -163.535 147.556
lclavicle 2.50966e-015 -1.11319e-014
lhumerus -50.9899 5.07183 79.7989
lradius 26.3873
lwrist 21.6043
lhand -12.282 -4.99624
lfingers 7.12502
lthumb 13.7853 24.527
rfemur -26.0895 4.83775 33.448
rtibia 40.787
rfoot -17.2457 3.20381
rtoes -11.8409
lfemur -32.5933 6.04455 -11.4672
ltibia 66.4084
lfoot -14.7431 4.86071
ltoes -34.6122
1086
root 6.13826 15.1237 36.7912 -170.915 -163.054 -186.653
lowerback 2.27765 2.81094 6.26122
upperback -5.83938 4.13047 -0.102648
thorax -6.95718 1.68303 -3.93114
lowerneck 16.8211 -10.4603 -28.9025
upperneck -10.8521 -18.5826 45.3135
head 2.62191 -11.889 23.5243
rclavicle 4.27387e-015 -1.15295e-014
rhumerus -31.5562 -5.62299 -86.1845
rradius 28.4599
rwrist 23.0729
rhand -9.64213 -3.18916
rfingers 7.12502
rthumb -163.672 147.478
lclavicle 4.27387e-015 -1.15295e-014
lhumerus -51.3684 4.7115 79.915
lradius 26.7955
lwrist 22.3712
lhand -12.6105 -5.66689
lfingers 7.12502
lthumb 13.4686 23.8776
rfemur -25.6333 5.15659 33.4396
rtibia 40.7479
rfoot -17.5452 3.30881
rtoes -11.8766
lfemur -33.3186 5.88111 -11.1957
ltibia 65.5692
lfoot -14.9854 5.85769
ltoes -34.0174
1087
root 6.13352 15.1215 36.8796 -170.87 -162.474 -186.736
lowerback 2.44011 2.93212 6.37786
upperback -5.81489 4.30802 -0.158356
thorax -6.99427 1.76136 -4.07559
lowerneck 16.7581 -10.3875 -28.9968
upperneck -10.734 -18.516 45.2933
head 2.64414 -11.8454 23.5584
rclavicle 7.85945e-014 4.77083e-015
rhumerus -31.3551 -5.63885 -86.334
rradius 28.672
rwrist 22.6395
rhand -9.82788 -3.16391
rfingers 7.12502
rthumb -163.851 147.489
lclavicle 7.85945e-014 4.77083e-015
lhumerus -51.7141 4.36098 80.0421
lradius 27.2001
lwrist 23.1725
lhand -12.8928 -6.33012
lfingers 7.12502
lthumb 13.1965 23.2322
rfemur -25.2034 5.48492 33.4335
rtibia 40.6978
rfoot -17.8234 3.41858
rtoes -11.9169
lfemur -34.0209 5.6787 -10.9014
ltibia 64.6453
lfoot -15.1979 6.88538
ltoes -33.4553
1088
root 6.12945 15.1202 36.9671 -170.808 -161.877 -186.811
lowerback 2.60487 3.06053 6.47592
upperback -5.80631 4.49542 -0.211946
thorax -7.04901 1.84449 -4.20952
lowerneck 16.7162 -10.3109 -29.1108
upperneck -10.6198 -18.4535 45.2759
head 2.66627 -11.8062 23.6037
rclavicle 6.28905e-014 1.59028e-015
rhumerus -31.1863 -5.58773 -86.4961
rradius 28.9116
rwrist 22.194
rhand -10.018 -3.17094
rfingers 7.12502
rthumb -164.034 147.467
lclavicle 6.28905e-014 1.59028e-015
lhumerus -52.0378 4.01726 80.1872
lradius 27.5903
lwrist 24.0309
lhand -13.1328 -6.95467
lfingers 7.12502
lthumb 12.9652 22.6225
rfemur -24.7939 5.81801 33.41
rtibia 40.6336
rfoot -18.0911 3.54431
rtoes -11.9575
lfemur -34.6886 5.44575 -10.6034
ltibia 63.6338
lfoot -15.371 7.92947
ltoes -32.8819
1089
root 6.1263 15.1205 37.0541 -170.732 -161.277 -186.864
lowerback 2.75325 3.18831 6.55291
upperback -5.80512 4.67971 -0.269122
thorax -7.10268 1.92694 -4.33511
lowerneck 16.6652 -10.2342 -29.2178
upperneck -10.4958 -18.3874 45.2481
head 2.68779 -11.7629 23.638
rclavicle -4.51738e-014 -1.35174e-014
rhumerus -31.0317 -5.47064 -86.6775
rradius 29.1707
rwrist 21.7351
rhand -10.2097 -3.20868
rfingers 7.12502
rthumb -164.218 147.415
lclavicle -4.51738e-014 -1.35174e-014
lhumerus -52.3333 3.68727 80.3466
lradius 27.9825
lwrist 24.9535
lhand -13.3473 -7.51881
lfingers 7.12502
lthumb 12.7584 22.0714
rfemur -24.4042 6.1308 33.3534
rtibia 40.5539
rfoot -18.3571 3.69638
rtoes -12.0043
lfemur -35.317 5.16529 -10.3134
ltibia 62.5285
lfoot -15.5062 8.9538
ltoes -32.3216
1090
root 6.12379 15.1216 37.1397 -170.628 -160.67 -186.923
lowerback 2.88712 3.32015 6.62872
upperback -5.80953 4.86881 -0.323714
thorax -7.15285 2.01184 -4.45739
lowerneck 16.5978 -10.1632 -29.2968
upperneck -10.3686 -18.3156 45.2028
head 2.70288 -11.7131 23.6473
rclavicle 7.47927e-014 1.39149e-014
rhumerus -30.8813 -5.31579 -86.8666
rradius 29.4348
rwrist 21.2981
rhand -10.4066 -3.22506
rfingers 7.12502
rthumb -164.408 147.383
lclavicle 7.47927e-014 1.39149e-014
lhumerus -52.5933 3.38061 80.509
lradius 28.3746
lwrist 25.8944
lhand -13.5423 -8.02051
lfingers 7.12502
lthumb 12.5704 21.5813
rfemur -24.0393 6.45717 33.2944
rtibia 40.4483
rfoot -18.602 3.85823
rtoes -12.0533
lfemur -35.9187 4.84609 -9.98921
ltibia 61.3281
lfoot -15.6103 9.87399
ltoes -31.7163
1091
root 6.12184 15.1244 37.2245 -170.512 -160.059 -186.959
lowerback 2.99768 3.45274 6.67848
upperback -5.81128 5.05508 -0.382791
thorax -7.18751 2.09741 -4.56832
lowerneck 16.5057 -10.1017 -29.3408
upperneck -10.2431 -18.2382 45.1394
head 2.71097 -11.6561 23.6267
rclavicle -3.80424e-014 1.11319e-014
rhumerus -30.7239 -5.12422 -87.0602
rradius 29.7001
rwrist 20.89
rhand -10.5839 -3.21642
rfingers 7.12502
rthumb -164.579 147.379
lclavicle -3.80424e-014 1.11319e-014
lhumerus -52.8103 3.1074 80.6706
lradius 28.7669
lwrist 26.8251
lhand -13.731 -8.44065
lfingers 7.12502
lthumb 12.3884 21.1723
rfemur -23.689 6.78269 33.2028
rtibia 40.308
rfoot -18.8258 4.03531
rtoes -12.114
lfemur -36.48 4.47194 -9.65507
ltibia 60.0236
lfoot -15.6755 10.6321
ltoes -31.0768
1092
root 6.12039 15.1302 37.3109 -170.383 -159.441 -186.988
lowerback 3.07268 3.5798 6.71733
upperback -5.81094 5.23053 -0.437816
thorax -7.20103 2.17939 -4.66558
lowerneck 16.3741 -10.047 -29.3507
upperneck -10.0977 -18.1534 45.0484
head 2.71808 -11.5881 23.5675
rclavicle -3.86636e-014 -1.59028e-015
rhumerus -30.5724 -4.88368 -87.2591
rradius 29.9617
rwrist 20.5263
rhand -10.7293 -3.19651
rfingers 7.12502
rthumb -164.719 147.388
lclavicle -3.86636e-014 -1.59028e-015
lhumerus -53.0033 2.88316 80.8251
lradius 29.157
lwrist 27.7466
lhand -13.909 -8.78834
lfingers 7.12502
lthumb 12.2168 20.8349
rfemur -23.324 7.09473 33.0908
rtibia 40.1183
rfoot -19.0425 4.24101
rtoes -12.1833
lfemur -36.9725 4.03542 -9.28999
ltibia 58.6093
lfoot -15.7061 11.1867
ltoes -30.4237
1093
root 6.11907 15.138 37.3989 -170.228 -158.826 -187.039
lowerback 3.10244 3.70769 6.76945
upperback -5.81411 5.40532 -0.479152
thorax -7.19182 2.26171 -4.75225
lowerneck 16.2495 -9.99411 -29.3595
upperneck -9.95115 -18.071 44.9435
head 2.72222 -11.5203 23.4964
rclavicle 1.09332e-014 -7.95139e-016
rhumerus -30.4369 -4.61234 -87.438
rradius 30.2108
rwrist 20.2259
rhand -10.8276 -3.13752
rfingers 7.12502
rthumb -164.813 147.44
lclavicle 1.09332e-014 -7.95139e-016
lhumerus -53.1784 2.70651 80.9744
lradius 29.5419
lwrist 28.6311
lhand -14.0869 -9.069
lfingers 7.12502
lthumb 12.0453 20.5643
rfemur -22.9479 7.40277 32.99
rtibia 39.874
rfoot -19.2406 4.46121
rtoes -12.2564
lfemur -37.4091 3.54153 -8.85729
ltibia 57.095
lfoot -15.6746 11.5133
ltoes -29.8889
1094
root 6.11716 15.1474 37.4885 -170.053 -158.205 -187.119
lowerback 3.10677 3.83443 6.82773
upperback -5.82818 5.57851 -0.501931
thorax -7.18061 2.3433 -4.82096
lowerneck 16.1293 -9.93528 -29.3767
upperneck -9.78515 -17.9871 44.8276
head 2.72875 -11.4505 23.4213
rclavicle -8.08805e-014 -9.93923e-015
rhumerus -30.3436 -4.30686 -87.6054
rradius 30.4639
rwrist 19.9707
rhand -10.8827 -3.08063
rfingers 7.12502
rthumb -164.866 147.493
lclavicle -8.08805e-014 -9.93923e-015
lhumerus -53.3494 2.57589 81.1118
lradius 29.9122
lwrist 29.4778
lhand -14.2339 -9.28637
lfingers 7.12502
lthumb 11.9036 20.3552
rfemur -22.5453 7.73118 32.9126
rtibia 39.5697
rfoot -19.4058 4.68039
rtoes -12.3192
lfemur -37.7813 2.99806 -8.34096
ltibia 55.4903
lfoot -15.6009 11.5808
ltoes -29.4834
